<?xml version="1.0" encoding="UTF-8" standalone="no"?>
<!-- Created with Inkscape (http://www.inkscape.org/) -->

<svg
   version="1.1"
   id="svg1"
   width="396"
   height="348"
   viewBox="0 0 396 348"
   sodipodi:docname="sd.svg"
   inkscape:version="1.3-beta (cedbd6c6ff, 2023-05-28)"
   xmlns:inkscape="http://www.inkscape.org/namespaces/inkscape"
   xmlns:sodipodi="http://sodipodi.sourceforge.net/DTD/sodipodi-0.dtd"
   xmlns="http://www.w3.org/2000/svg"
   xmlns:svg="http://www.w3.org/2000/svg">
  <defs
     id="defs1" />
  <sodipodi:namedview
     id="namedview1"
     pagecolor="#505050"
     bordercolor="#eeeeee"
     borderopacity="1"
     inkscape:showpageshadow="0"
     inkscape:pageopacity="0"
     inkscape:pagecheckerboard="0"
     inkscape:deskcolor="#505050"
     showgrid="false"
     inkscape:zoom="1.4856322"
     inkscape:cx="198.23211"
     inkscape:cy="218.42553"
     inkscape:window-width="1366"
     inkscape:window-height="713"
     inkscape:window-x="-8"
     inkscape:window-y="-8"
     inkscape:window-maximized="1"
     inkscape:current-layer="g1" />
  <g
     inkscape:groupmode="layer"
     inkscape:label="Image"
     id="g1">
    <path
       style="fill:#000000;stroke-width:1.58177"
       d="m 159.88703,337.2599 c -9.67832,-4.45704 -15.11313,-14.12165 -15.11313,-26.87533 0,-15.73113 9.15745,-26.20169 23.78165,-27.1917 6.97618,-0.47227 9.9132,0.16685 14.75487,3.21074 7.05086,4.4328 12.8628,15.50959 12.81233,24.41862 -0.0471,8.32355 -4.81877,18.77413 -10.64836,23.32169 -5.63538,4.39607 -19.21638,6.04994 -25.58736,3.11598 z m 132.52857,-2.05893 c -22.52976,-14.94151 -12.90916,-52.46077 13.45188,-52.46077 20.47685,0 32.8025,25.5695 21.30591,44.19896 -7.3782,11.95589 -23.43326,15.77212 -34.75779,8.26181 z M 119.55576,307.44294 c -6.88406,-2.23697 -11.05153,-8.76705 -11.05153,-17.3169 0,-5.17161 1.80896,-10.82501 6.74223,-21.07092 l 6.74223,-14.00295 -3.46295,-3.56405 c -6.28262,-6.466 -10.38052,-18.39619 -36.465751,-106.16239 L 56.226614,58.406934 36.650528,57.579136 C 17.045487,56.750113 11.503632,55.19997 9.6960568,50.03954 7.9225305,44.976307 8.772903,38.064905 11.64862,34.170305 l 2.885978,-3.908504 28.572899,-0.51118 c 25.751541,-0.460705 28.900746,-0.215487 31.893009,2.483394 2.565656,2.314101 9.180412,23.874225 29.109724,94.880155 14.18431,50.53707 27.17305,94.34493 28.86389,97.35082 6.34439,11.27865 2.56351,10.82623 83.27433,9.96441 40.06668,-0.42783 85.32158,-0.34944 100.56647,0.17422 l 27.71796,0.95209 2.88457,3.9085 c 3.24537,4.39737 3.72495,12.96677 0.94747,16.92992 -4.53483,6.47066 -5.47691,6.52586 -110.17106,6.45553 l -101.65163,-0.0682 -5.63241,12.04889 c -3.09782,6.62689 -5.66607,12.98018 -5.7072,14.1184 -0.0509,1.40775 2.50873,2.0695 8.00478,2.0695 h 8.07957 l -2.67701,8.69187 -2.67703,8.69188 -5.78036,0.30306 c -3.17921,0.16668 -7.94776,-0.40123 -10.59681,-1.26205 z m 82.8893,-5.24949 c -1.04166,-3.86996 -2.25948,-7.96756 -2.70623,-9.10578 -0.63806,-1.62558 7.6826,-2.0695 38.79082,-2.0695 31.49644,0 39.28785,0.42362 38.06291,2.0695 -0.8471,1.13822 -2.39813,5.23582 -3.44671,9.10578 l -1.90653,7.03628 h -33.45016 -33.45017 z m -49.35937,-85.60099 c -7.11218,-3.2228 -9.46143,-9.71275 -29.29807,-80.93707 l -19.98448,-71.755203 2.38538,-3.988324 2.3854,-3.988323 h 79.46888 79.4689 l -0.86926,3.794263 c -7.99553,34.899782 7.51711,70.326987 38.02787,86.846657 l 11.47214,6.21145 h 17.83542 c 9.80946,0 17.8354,0.0972 17.8354,0.21604 0,2.86184 -15.59541,56.37317 -16.95163,58.16483 -5.14923,6.80241 -8.14153,7.01959 -95.20913,6.91022 -45.94939,-0.0577 -84.90445,-0.72126 -86.56682,-1.47454 z m 159.76646,-81.42139 c -11.39439,-4.79682 -24.46644,-18.5874 -29.94984,-31.59612 -3.80987,-9.03844 -4.384,-12.35185 -4.384,-25.300863 0,-12.949009 0.57413,-16.262417 4.384,-25.300864 5.68581,-13.488891 18.5343,-26.811925 30.69998,-31.833866 12.60883,-5.204867 32.58712,-4.231826 44.52876,2.168773 10.41745,5.583651 21.32302,18.112852 26.63354,30.598787 3.41585,8.031241 4.03003,11.731604 4.05019,24.401987 0.0216,13.554596 -0.4336,15.952993 -4.92418,25.945986 -6.19542,13.78682 -18.17339,26.22516 -29.87221,31.02038 -11.30941,4.63558 -30.01982,4.58822 -41.16624,-0.10415 z m 35.20598,-54.466651 20.13405,-23.953081 -3.16356,-3.725091 c -1.73996,-2.0488 -3.68122,-3.725092 -4.31393,-3.725092 -0.6327,0 -8.91046,6.991469 -18.39502,15.536598 l -17.24465,15.53659 -7.94402,-6.636358 -7.94403,-6.636374 -3.92444,4.299335 -3.92445,4.299334 3.04354,3.77029 c 1.67395,2.073667 7.0131,8.823747 11.86478,15.00018 4.85166,6.17642 9.46394,10.99516 10.24946,10.70831 0.78552,-0.28686 10.48855,-11.300451 21.56227,-24.474641 z"
       id="path1" />
  </g>
</svg>
