<?xml version="1.0" encoding="UTF-8" standalone="no"?>
<!-- Created with Inkscape (http://www.inkscape.org/) -->

<svg
   version="1.1"
   id="svg1"
   width="612"
   height="612"
   viewBox="0 0 612 612"
   sodipodi:docname="sddddd.svg"
   inkscape:version="1.3-beta (cedbd6c6ff, 2023-05-28)"
   xmlns:inkscape="http://www.inkscape.org/namespaces/inkscape"
   xmlns:sodipodi="http://sodipodi.sourceforge.net/DTD/sodipodi-0.dtd"
   xmlns="http://www.w3.org/2000/svg"
   xmlns:svg="http://www.w3.org/2000/svg">
  <defs
     id="defs1" />
  <sodipodi:namedview
     id="namedview1"
     pagecolor="#505050"
     bordercolor="#eeeeee"
     borderopacity="1"
     inkscape:showpageshadow="0"
     inkscape:pageopacity="0"
     inkscape:pagecheckerboard="0"
     inkscape:deskcolor="#505050"
     inkscape:zoom="0.75575672"
     inkscape:cx="96.591929"
     inkscape:cy="310.28503"
     inkscape:window-width="1366"
     inkscape:window-height="713"
     inkscape:window-x="-8"
     inkscape:window-y="-8"
     inkscape:window-maximized="1"
     inkscape:current-layer="g1" />
  <g
     inkscape:groupmode="layer"
     inkscape:label="Image"
     id="g1">
    <path
       style="fill:#f4d7d7"
       d="m 1.2927123,307.32318 c 0,-306.0000026 0,-306.0000026 305.9999977,-306.0000026 306,0 306,0 306,306.0000026 0,306 0,306 -306,306 -305.9999977,0 -305.9999977,0 -305.9999977,-306 z M 278.76468,467.28161 c 22.79466,-3.42971 36.07264,-8.10168 41.90066,-14.74313 0.62005,-0.70659 1.66632,-1.88841 2.32505,-2.62626 0.65873,-0.73786 2.22252,-4.20974 3.47509,-7.7153 2.23032,-6.24195 2.27215,-7.1181 2.02311,-42.37374 -0.26649,-37.72439 0.4143,-46.39218 5.34092,-68 0.8778,-3.85 1.70537,-7.9 1.83904,-9 0.2464,-2.02769 11.36298,-13.09197 24.12415,-24.01067 3.85,-3.29413 7.225,-6.25129 7.5,-6.57147 0.275,-0.32018 4.1,-3.07942 8.5,-6.13164 14.89633,-10.3334 28.39551,-15.78622 39.0809,-15.78622 5.97095,0 6.8479,0.27495 9.57502,3.00208 2.56204,2.56203 2.89854,3.47815 2.29568,6.25 -1.21478,5.58534 -2.27784,7.58796 -4.96133,9.34626 -3.36432,2.20438 -7.63142,2.03559 -12.76638,-0.50498 -2.26312,-1.11971 -4.27333,-1.87725 -4.46714,-1.68344 -0.19381,0.19381 1.54236,1.97421 3.85816,3.95644 5.0413,4.31517 9.29776,5.3336 13.97343,3.34339 6.40076,-2.72449 13.91166,-12.19745 13.91166,-17.54578 0,-5.72111 -3.53921,-9.82804 -11.97472,-13.89561 -4.81041,-2.31956 -6.75441,-2.661 -15.02528,-2.63899 -13.14368,0.035 -25.11303,3.84897 -45.85611,14.61195 -5.14586,2.67003 -9.71126,4.72052 -10.14533,4.55664 -2.11626,-0.79898 16.6451,-32.65999 29.28207,-49.72753 12.11179,-16.35825 32.50668,-34.86147 47.52602,-43.11789 2.03134,-1.11667 6.39335,-3.57464 9.69335,-5.46217 3.3,-1.88752 6.72674,-3.44502 7.61497,-3.46111 1.8019,-0.0326 6.15567,9.61736 9.84032,21.81077 2.77743,9.19121 3.84674,27.27881 2.14804,36.33477 -1.40991,7.51645 -6.76359,25.2877 -8.68373,28.8252 -0.74634,1.375 -2.54269,5.425 -3.99188,9 -1.44919,3.575 -3.44166,8.3 -4.42772,10.5 -13.42483,29.95229 -17.96364,55.67046 -18.03957,102.21728 -0.0416,25.52322 0.71388,34.07683 5.0287,56.93235 4.73313,25.07129 4.81026,24.99608 4.25567,-4.14963 -1.04421,-54.87632 3.96995,-96.22765 16.32595,-134.63861 3.83849,-11.93269 10.18426,-26.10621 13.16757,-29.41029 3.28245,-3.63539 14.15203,-20.91756 16.95082,-26.9511 4.19079,-9.03439 4.09775,-20.8837 -0.33704,-42.92209 -3.46242,-17.20626 -12.91391,-39.20299 -22.79352,-53.04802 -6.47835,-9.0786 -6.09348,-8.96852 -13.55858,-3.87783 -3.575,2.43791 -7.4,4.87349 -8.5,5.41239 -1.1,0.5389 -4.7,2.99733 -8,5.46318 -3.3,2.46585 -10.275,7.47391 -15.5,11.12902 -27.14007,18.98566 -44.50079,36.21156 -59.51133,59.04917 -2.4561,3.7368 -4.82358,7.24418 -5.26107,7.79418 -1.33408,1.67717 -9.7709,16.77457 -11.45592,20.5 -0.87069,1.925 -3.01945,6.65 -4.77504,10.5 -6.35798,13.9431 -14.99663,35.65994 -14.99663,37.70027 0,0.76985 -0.39469,1.82723 -0.87708,2.34973 -0.48239,0.5225 -1.60896,3.2 -2.50348,5.95 -1.39822,4.29849 -4.12349,7.52543 -19.42438,23 -9.78889,9.9 -21.59982,21.375 -26.24652,25.5 -4.6467,4.125 -8.67354,7.72614 -8.94854,8.00253 -4.42477,4.44713 -19.28041,13.97871 -33.5,21.49407 -14.22644,7.51897 -13.28735,7.04406 -18.5,9.35584 -21.11692,9.36526 -33.83178,12.87471 -37.61522,10.38225 -1.96204,-1.29256 -2.52013,-5.01833 -1.38382,-9.23827 1.37002,-5.08787 6.76106,-10.57986 13.98453,-14.24642 6.31214,-3.20398 4.75416,-3.58486 -3.31202,-0.80968 -5.94525,2.04546 -12.69487,6.25606 -16.3724,10.21353 -3.2607,3.50892 -7.30107,13.35147 -7.30107,17.78577 0,3.14715 0.61133,4.397 3.22738,6.59826 3.0718,2.58474 3.61415,2.69032 11.25,2.18991 22.77746,-1.49268 63.1656,-17.99173 93.02262,-38.00089 9.41419,-6.30907 30.61134,-22.56199 33.5,-25.68614 3.23715,-3.50105 12.322,-10.10645 12.96228,-9.4246 0.45648,0.48611 0.39478,3.80884 -0.13713,7.38384 -0.58505,3.93226 -0.69853,20.17464 -0.28726,41.11608 0.67983,34.61608 0.67983,34.61608 -2.67903,37.17364 -10.48413,7.98302 -32.27015,11.22744 -70.14478,10.44613 -40.15088,-0.82828 -63.09325,-6.10337 -91.66396,-21.0761 -9.44988,-4.9523 -9.44988,-4.9523 -6.31727,-0.99705 9.27413,11.70954 25.93797,24.31185 40.9424,30.96338 14.02252,6.21625 39.91273,12.16722 59.82475,13.75097 8.99404,0.71536 28.68364,-0.41924 41.97197,-2.41862 z"
       id="path1" />
  </g>
</svg>
